<svg xmlns="http://www.w3.org/2000/svg" width="1200" height="630" viewBox="0 0 1200 630" role="img" aria-label="Liquid Glass for Web">
  <defs>
    <radialGradient id="pink" cx="20%" cy="20%" r="55%">
      <stop stop-color="#ff2a85" stop-opacity="0.28"/>
      <stop offset="1" stop-color="#ff2a85" stop-opacity="0"/>
    </radialGradient>
    <radialGradient id="cyan" cx="85%" cy="70%" r="60%">
      <stop stop-color="#00f2fe" stop-opacity="0.32"/>
      <stop offset="1" stop-color="#00f2fe" stop-opacity="0"/>
    </radialGradient>
    <linearGradient id="text" x1="220" x2="960" y1="210" y2="420" gradientUnits="userSpaceOnUse">
      <stop stop-color="#111214"/>
      <stop offset="1" stop-color="#4a4a4f"/>
    </linearGradient>
    <filter id="blur">
      <feGaussianBlur stdDeviation="28"/>
    </filter>
  </defs>
  <rect width="1200" height="630" fill="#f3f6fb"/>
  <rect width="1200" height="630" fill="url(#pink)"/>
  <rect width="1200" height="630" fill="url(#cyan)"/>
  <g opacity="0.5">
    <path d="M0 120h1200M0 240h1200M0 360h1200M0 480h1200M120 0v630M240 0v630M360 0v630M480 0v630M600 0v630M720 0v630M840 0v630M960 0v630M1080 0v630" stroke="#111827" stroke-opacity="0.04"/>
  </g>
  <rect x="130" y="105" width="940" height="420" rx="64" fill="#ffffff" fill-opacity="0.44" stroke="#ffffff" stroke-opacity="0.8"/>
  <rect x="160" y="135" width="880" height="360" rx="48" fill="#ffffff" fill-opacity="0.18" stroke="#111827" stroke-opacity="0.08"/>
  <text x="600" y="260" text-anchor="middle" font-family="Inter, -apple-system, BlinkMacSystemFont, Segoe UI, sans-serif" font-size="40" font-weight="700" fill="#111214" opacity="0.68">React UI Components</text>
  <text x="600" y="350" text-anchor="middle" font-family="Outfit, Inter, -apple-system, BlinkMacSystemFont, Segoe UI, sans-serif" font-size="88" font-weight="800" fill="url(#text)">Liquid Glass for Web</text>
  <text x="600" y="420" text-anchor="middle" font-family="Inter, -apple-system, BlinkMacSystemFont, Segoe UI, sans-serif" font-size="34" font-weight="500" fill="#111214" opacity="0.7">@zakisheriff/liquid-glass</text>
</svg>
